<?xml version="1.0" encoding="UTF-8"?> <svg xmlns="http://www.w3.org/2000/svg" width="55" height="55" viewBox="0 0 55 55" fill="none"> <path fill-rule="evenodd" clip-rule="evenodd" d="M27.4832 0C34.7739 0.0027 41.6172 2.841 46.7626 7.9928C51.9089 13.1446 54.7408 19.9915 54.7363 27.2749C54.7299 42.301 42.5029 54.528 27.4823 54.528H27.4714C22.9107 54.5262 18.4282 53.3822 14.4477 51.2105L0 55L3.8668 40.8769C1.4823 36.7446 0.2274 32.0557 0.2292 27.2522C0.2346 12.2252 12.4616 0 27.4832 0ZM27.475 49.9246H27.4841C39.9693 49.9246 50.131 39.7629 50.1356 27.2713C50.1374 21.2183 47.7839 15.5272 43.5069 11.2457C39.23 6.9642 33.5426 4.6043 27.4923 4.6025C14.9979 4.6025 4.8353 14.7633 4.8308 27.2531C4.8289 31.5337 6.0266 35.7015 8.2938 39.3082L8.8322 40.1658L6.5441 48.525L15.118 46.2761L15.9455 46.7671C19.4231 48.8306 23.4099 49.9228 27.475 49.9246ZM35.2551 30.7435C35.8799 30.9708 39.2274 32.6178 39.9086 32.9588C40.0402 33.0247 40.1633 33.0843 40.2776 33.1395C40.7545 33.3701 41.0764 33.5258 41.2136 33.7554C41.3836 34.0392 41.3836 35.4033 40.8161 36.9938C40.2487 38.5844 37.5286 40.0358 36.22 40.2313C35.046 40.4068 33.5618 40.4796 31.9303 39.9612C30.9409 39.6475 29.6732 39.2291 28.0481 38.5271C21.6615 35.7691 17.3462 29.5782 16.5333 28.4121C16.4767 28.3309 16.4371 28.274 16.415 28.2444L16.4124 28.241C16.062 27.7748 13.634 24.544 13.634 21.2002C13.634 18.0648 15.1735 16.4213 15.8831 15.6637C15.9321 15.6113 15.9772 15.5632 16.0175 15.5191C16.6423 14.837 17.3798 14.667 17.8336 14.667C18.2874 14.667 18.7421 14.6706 19.1386 14.6906C19.1876 14.6931 19.2386 14.6928 19.2913 14.6924C19.6883 14.69 20.1828 14.6871 20.671 15.8592C20.8594 16.3119 21.1355 16.984 21.4265 17.6923C22.0118 19.1167 22.6572 20.6877 22.7708 20.9155C22.9409 21.2565 23.0545 21.654 22.8272 22.1087C22.7926 22.1776 22.7607 22.2427 22.7302 22.3049C22.56 22.6516 22.4345 22.9075 22.146 23.2445C22.0328 23.3768 21.9158 23.5194 21.7987 23.662C21.564 23.9478 21.3292 24.2338 21.1248 24.4376C20.7837 24.7769 20.4291 25.1452 20.8265 25.8272C21.2239 26.5084 22.5907 28.7382 24.6151 30.5443C26.7905 32.4855 28.6816 33.3056 29.6406 33.7216C29.8282 33.8029 29.9801 33.8688 30.0915 33.9246C30.7718 34.2656 31.1692 34.2092 31.5666 33.7545C31.964 33.2998 33.269 31.7666 33.7228 31.0845C34.1766 30.4024 34.6313 30.5161 35.2551 30.7435Z" fill="#1D3E77"></path> </svg> 