<?xml version="1.0" encoding="UTF-8"?> <svg xmlns="http://www.w3.org/2000/svg" width="50" height="42" viewBox="0 0 50 42" fill="none"> <path d="M45.7373 0.3678C45.7373 0.3678 50.3626 -1.4357 49.9772 2.9444C49.8487 4.748 48.6924 11.0605 47.793 17.8883L44.7094 38.1142C44.7094 38.1142 44.4525 41.0772 42.1398 41.5925C39.827 42.1078 36.3581 39.789 35.7156 39.2736C35.2017 38.8872 26.0795 33.0899 22.8674 30.2557C21.968 29.4828 20.9401 27.9368 22.9958 26.1332L36.4866 13.2506C38.0284 11.7047 39.5701 8.0975 33.146 12.4776L15.1585 24.7162C15.1585 24.7162 13.1027 26.0044 9.2483 24.845L0.896898 22.2685C0.896898 22.2685 -2.1867 20.3361 3.0811 18.4036C15.9294 12.3487 31.7328 6.165 45.7373 0.3678Z" fill="#1D3E77"></path> </svg> 